<svg width="21" height="21" viewBox="0 0 21 21" fill="none" xmlns="http://www.w3.org/2000/svg">
<path d="M3.5 0C3.91927 0 4.28021 0.335918 4.36042 0.800215L4.4151 1.3125H19.7531C20.4932 1.3125 21.0839 2.14307 20.876 2.9802L18.9073 10.8568C18.7651 11.4229 18.3057 11.8125 17.7844 11.8125H6.22344L6.55885 13.7812H17.7917C18.2766 13.7812 18.6667 14.2201 18.6667 14.7656C18.6667 15.3111 18.2766 15.75 17.7917 15.75H5.80052C5.41406 15.75 5.05312 15.4137 4.97292 14.9502L2.77594 1.96875H0.875C0.391927 1.96875 0 1.52783 0 0.984375C0 0.440918 0.391927 0 0.875 0H3.5ZM4.66667 19.0312C4.66667 17.9443 5.45052 17.0625 6.41667 17.0625C7.38281 17.0625 8.16667 17.9443 8.16667 19.0312C8.16667 20.1182 7.38281 21 6.41667 21C5.45052 21 4.66667 20.1182 4.66667 19.0312ZM18.6667 19.0312C18.6667 20.1182 17.8828 21 16.9167 21C15.9505 21 15.1667 20.1182 15.1667 19.0312C15.1667 17.9443 15.9505 17.0625 16.9167 17.0625C17.8828 17.0625 18.6667 17.9443 18.6667 19.0312Z" fill="white"/>
</svg>
