<svg width="21" height="19" viewBox="0 0 21 19" fill="none" xmlns="http://www.w3.org/2000/svg">
<path d="M0.500012 6.58053C0.505573 3.96287 2.39928 1.73212 4.97947 1.30209L4.98097 1.30183C6.65486 1.01761 8.4317 1.57536 9.65399 2.79952L9.65455 2.80008L10.1467 3.29145L10.514 3.65813L10.8668 3.27743L11.3132 2.79561C12.575 1.57118 14.3148 1.01819 16.0206 1.30209L0.500012 6.58053ZM0.500012 6.58053V6.82998C0.500012 8.39372 1.1493 9.88948 2.29286 10.9554L2.29313 10.9557L9.70503 17.875C9.70504 17.875 9.70505 17.875 9.70507 17.875C9.91985 18.0755 10.2039 18.1876 10.5 18.1876C10.7961 18.1876 11.0801 18.0755 11.2949 17.875C11.2949 17.875 11.295 17.875 11.295 17.875L18.7064 10.9557L18.707 10.9552C19.8518 9.88949 20.5 8.39393 20.5 6.82998V6.59209C20.5 3.96941 18.6053 1.7328 16.0206 1.3021L0.500012 6.58053Z" stroke="black"/>
</svg>
