<svg width="538" height="649" viewBox="0 0 538 649" fill="none" xmlns="http://www.w3.org/2000/svg">
<path d="M0 0H528C533.523 0 538 4.47715 538 10V639C538 644.523 533.523 649 528 649H0V0Z" fill="url(#paint0_linear_265_4008)"/>
<ellipse cx="254" cy="434.5" rx="225" ry="60.5" fill="#7DDFFF" fill-opacity="0.2"/>
<ellipse cx="253.5" cy="434" rx="189.5" ry="40" fill="#7DDFFF" fill-opacity="0.2"/>
<g clip-path="url(#clip0_265_4008)">
<path d="M417.493 281.497C410.685 281.497 405.167 287.613 405.167 295.158V304.743H408.119L409.828 301.192L409.401 304.743H428.376L429.93 301.514L429.542 304.743H431.678V297.217C431.678 288.535 425.327 281.497 417.493 281.497Z" fill="#2F2E41"/>
<path d="M405.915 325.813L403.868 333.65L422.977 332.969L422.635 326.495C422.635 326.495 408.304 322.747 405.915 325.813Z" fill="#FFB9B9"/>
<path d="M387.489 357.162L393.631 370.791L399.432 363.636L394.655 354.095L387.489 357.162Z" fill="#FFB9B9"/>
<path d="M402.844 407.25L403.526 422.925H411.034L410.01 407.25H402.844Z" fill="#FFB9B9"/>
<path d="M393.972 342.85L397.384 354.095L402.503 408.613C402.503 408.613 407.28 409.976 410.692 408.273L411.375 400.776L412.74 357.843C412.74 357.843 419.223 354.436 418.541 349.665C417.858 344.895 416.152 338.421 416.152 338.421L393.972 342.85Z" fill="#2F2E41"/>
<path d="M404.55 419.176H402.503C402.503 419.176 396.702 425.31 394.654 425.991C392.607 426.673 382.029 432.465 390.56 433.487C399.09 434.51 404.55 430.08 404.55 430.08C404.55 430.08 407.28 431.784 411.034 430.421C414.787 429.058 412.74 424.969 412.74 424.969C412.74 424.969 410.834 418.737 410.763 418.786C410.692 418.836 408.645 421.902 404.55 419.176Z" fill="#2F2E41"/>
<path d="M415.128 302.643C419.463 302.643 422.977 299.134 422.977 294.806C422.977 290.478 419.463 286.969 415.128 286.969C410.794 286.969 407.28 290.478 407.28 294.806C407.28 299.134 410.794 302.643 415.128 302.643Z" fill="#FFB9B9"/>
<path d="M426.73 305.028L423.12 308.033L422.635 308.436L422.294 312.524H408.986C408.986 312.524 410.802 310.954 412.487 309.328C412.521 309.291 412.559 309.25 412.6 309.212C412.828 308.991 413.033 308.786 413.217 308.602C413.316 308.5 413.412 308.405 413.497 308.316C413.637 308.17 413.774 308.03 413.91 307.89C413.912 307.889 413.913 307.886 413.914 307.884C414.263 307.519 414.591 307.134 414.896 306.732L414.9 306.728C414.982 306.62 415.058 306.507 415.128 306.391C416.152 304.687 413.763 301.28 413.763 301.28L421.271 297.532C421.533 301.225 424.662 303.692 426.061 304.619C426.471 304.888 426.73 305.028 426.73 305.028Z" fill="#FFB9B9"/>
<path d="M445.157 362.273C440.038 363.636 439.697 353.413 439.697 353.413L432.711 339.462C431.235 336.514 430.22 333.357 429.701 330.102L428.095 320.021L427.607 320.603V320.607L426.73 321.043L421.4 312.524L419.906 310.139V307.413L425.024 305.028H427.071C427.071 305.028 427.116 305.021 427.194 305.015C428.136 304.916 434.265 304.507 434.579 310.48C434.702 312.824 434.691 314.767 434.628 316.29C434.433 320.506 434.834 324.729 435.818 328.833C436.179 330.313 436.573 331.599 436.967 332.287C438.332 334.673 443.109 353.413 443.109 353.413C443.109 353.413 450.275 360.91 445.157 362.273Z" fill="#FFB9B9"/>
<path d="M413.763 308.776L412.47 311.131L411.706 312.524L407.963 319.339C407.963 319.339 406.901 320.205 405.181 321.322C402.322 323.179 397.633 325.728 392.948 326.154C385.441 326.836 392.607 302.643 392.607 302.643C392.607 302.643 394.996 293.102 398.408 294.124C401.82 295.147 399.09 298.554 396.702 305.028C394.313 311.502 396.361 318.658 396.361 318.658C396.361 318.658 403.526 314.228 407.28 310.821C409.235 309.045 410.914 308.565 412.071 308.514H412.074C412.458 308.493 412.842 308.523 413.218 308.602C413.405 308.64 413.589 308.698 413.763 308.776Z" fill="#FFB9B9"/>
<path d="M414.896 306.732C414.883 306.769 414.722 307.073 413.497 308.316C413.997 307.819 414.464 307.289 414.896 306.732Z" fill="#D0CDE1"/>
<path d="M427.925 320.191L427.607 320.607L422.635 329.221C422.635 329.221 416.152 326.836 411.375 326.154C410.062 325.928 408.712 326.098 407.497 326.642C406.282 327.187 405.257 328.081 404.554 329.211L405.915 323.769L405.181 321.322C405.096 321.036 404.997 320.719 404.891 320.362C403.868 316.954 407.621 313.206 407.621 313.206L412.071 308.514H412.074C412.458 308.493 412.842 308.523 413.217 308.603C413.033 308.787 412.828 308.991 412.6 309.212C412.559 309.25 412.521 309.291 412.487 309.328C411.18 310.661 411.859 311.032 412.47 311.131C412.672 311.162 412.877 311.172 413.081 311.161C414.504 311.366 417.619 310.119 419.906 309.076C421.462 308.367 422.635 307.754 422.635 307.754L425.614 305.028L426.061 304.619C426.471 304.888 426.73 305.028 426.73 305.028H427.071C427.071 305.028 427.116 305.021 427.194 305.015L425.641 306.166C424.867 306.739 424.249 307.496 423.844 308.369C423.438 309.241 423.257 310.201 423.318 311.161L427.925 320.191Z" fill="#D0CDE1"/>
<path d="M409.327 329.902L404.339 331.848C404.339 331.848 377.252 321.384 373.157 329.902C369.062 338.421 387.489 358.865 387.489 358.865L395.678 355.117L392.266 344.895C392.266 344.895 412.057 361.591 420.247 352.391C428.436 343.191 422.977 330.183 422.977 330.183C422.977 330.183 417.858 326.154 409.327 329.902Z" fill="#2F2E41"/>
<path d="M394.996 367.043L391.925 369.428C391.925 369.428 394.654 380.332 393.631 382.036C392.607 383.739 390.56 388.51 394.313 388.169C398.067 387.828 402.162 382.036 402.503 379.991C402.844 377.947 405.233 371.813 405.233 371.813C405.233 371.813 409.327 362.273 406.256 361.932C403.185 361.591 398.294 361.363 398.294 361.363L394.996 367.043Z" fill="#2F2E41"/>
<path d="M420.998 285.26C420.404 284.465 419.636 283.817 418.751 283.366C417.866 282.915 416.89 282.674 415.897 282.661H415.655C410.989 282.661 407.206 286.877 407.206 292.078V292.078H408.769L409.022 290.159L409.392 292.078H418.665L419.442 290.455L419.248 292.078H421.072C421.923 296.3 420.7 300.521 417.403 304.743H420.51L422.064 301.496L421.676 304.743H427.599L428.765 297.274C428.765 291.681 425.51 286.937 420.998 285.26Z" fill="#2F2E41"/>
<path d="M391.19 258.157C406.727 258.157 419.322 245.58 419.322 230.065C419.322 214.551 406.727 201.974 391.19 201.974C375.653 201.974 363.058 214.551 363.058 230.065C363.058 245.58 375.653 258.157 391.19 258.157Z" fill="#FF6584"/>
<path d="M321.955 361.128C321.435 365.262 321.009 369.241 320.66 373.035H331.962C332.374 369.046 332.89 365.077 333.51 361.128H321.955Z" fill="#3F3D56"/>
<path d="M331.199 403.166C330.957 399.217 330.859 395.248 330.905 391.259H319.448C319.262 395.822 319.189 399.826 319.175 403.166H331.199Z" fill="#3F3D56"/>
<path d="M350.742 297.706C360.164 272.641 369.395 255.789 369.395 255.789L359.783 250.078C349.774 265.149 342.209 281.44 336.497 297.706H350.742Z" fill="#3F3D56"/>
<path d="M320.384 376.194C320.031 380.438 319.774 384.425 319.591 388.1H330.965C331.074 384.132 331.306 380.163 331.661 376.194H320.384Z" fill="#3F3D56"/>
<path d="M324.183 346.062C323.488 350.136 322.886 354.113 322.367 357.969H334.023C334.7 353.959 335.464 349.99 336.314 346.062H324.183Z" fill="#3F3D56"/>
<path d="M335.412 300.865C334.071 304.846 332.836 308.815 331.708 312.771H345.431C346.787 308.649 348.177 304.671 349.571 300.865H335.412Z" fill="#3F3D56"/>
<path d="M327.113 330.996C326.228 335.031 325.436 339 324.737 342.903H337.013C337.93 338.867 338.916 334.898 339.971 330.996H327.113Z" fill="#3F3D56"/>
<path d="M319.18 406.325C319.217 411.456 319.387 414.344 319.387 414.344L319.265 416.653H332.649C332.114 413.24 331.706 409.797 331.424 406.325H319.18Z" fill="#3F3D56"/>
<path d="M330.822 315.93C329.725 319.936 328.725 323.905 327.824 327.837H340.839C341.979 323.767 343.168 319.798 344.407 315.93H330.822Z" fill="#3F3D56"/>
<path d="M426.742 266.707C421.978 256.763 417.186 249.346 412.515 243.881L410.076 247.623L410.283 241.407C408.681 239.714 406.96 238.137 405.133 236.69L401.8 241.804L402.044 234.491C400.061 233.21 397.936 232.163 395.712 231.369L393.246 235.152L393.396 230.673C384.89 228.541 377.901 231.461 373.851 233.954L371.42 233.591L375.59 231.852C375.21 229.525 374.561 227.249 373.658 225.07L366.41 223.99L372.049 221.639C370.953 219.583 369.711 217.608 368.332 215.73L362.172 214.812L366.298 213.091C361.757 207.517 355.316 201.473 346.381 195C346.381 195 345.72 200.765 345.351 208.804L351.403 214.986L345.186 213.38C345.121 215.849 345.093 218.448 345.123 221.1L349.586 225.659L345.196 224.525C345.26 226.553 345.364 228.591 345.514 230.607C341.714 229.69 337.747 229.712 333.957 230.673L334.106 235.152L331.641 231.369C329.417 232.163 327.292 233.21 325.309 234.491L325.553 241.804L322.219 236.69C320.392 238.138 318.671 239.714 317.069 241.407L317.277 247.623L314.837 243.881C310.166 249.346 305.374 256.763 300.611 266.707C300.611 266.707 306.409 266.316 314.394 265.227L319.391 258.168L318.931 264.564C321.374 264.183 323.94 263.741 326.546 263.233L330.232 258.027L329.907 262.543C333.543 261.758 337.189 260.839 340.634 259.768L343.107 262.066L338.683 261.144C337.678 263.279 336.924 265.522 336.435 267.829L341.8 272.813L335.818 271.567C335.557 273.882 335.463 276.212 335.536 278.54L340.096 282.776L335.719 281.864C336.306 289.026 338.194 297.648 341.897 308.033C341.897 308.033 345.707 303.652 350.564 297.23L349.075 288.715L353.293 293.55C354.745 291.551 356.24 289.423 357.717 287.219L356.619 280.939L359.597 284.353C362.588 279.69 365.385 274.8 367.445 270.141C370.109 273.611 372.961 276.931 375.991 280.087L378.272 276.174L378.377 282.548C380.243 284.436 382.113 286.244 383.915 287.935L387.147 282.393L387.289 291.037C393.269 296.431 397.837 300.018 397.837 300.018C399.517 289.123 399.746 280.3 398.974 273.156L394.846 274.874L398.527 269.856C398.16 267.556 397.628 265.285 396.936 263.061L391.296 265.409L393.978 261.752C395.13 262.03 396.286 262.293 397.445 262.543L397.121 258.027L400.806 263.233C403.413 263.741 405.978 264.183 408.422 264.564L407.962 258.168L412.959 265.227C420.944 266.316 426.742 266.707 426.742 266.707Z" fill="#0666F7"/>
<path d="M301.929 353.815C302.296 356.733 302.596 359.542 302.843 362.22H294.865C294.574 359.404 294.21 356.603 293.772 353.815H301.929Z" fill="#3F3D56"/>
<path d="M295.404 383.489C295.575 380.701 295.644 377.9 295.611 375.084H303.699C303.83 378.305 303.882 381.131 303.891 383.489H295.404Z" fill="#3F3D56"/>
<path d="M281.608 309.046C274.958 291.354 268.442 279.458 268.442 279.458L275.227 275.427C282.292 286.065 287.632 297.564 291.664 309.046H281.608Z" fill="#3F3D56"/>
<path d="M303.038 364.45C303.287 367.446 303.468 370.26 303.598 372.855H295.569C295.492 370.053 295.328 367.251 295.078 364.45H303.038Z" fill="#3F3D56"/>
<path d="M300.356 343.18C300.847 346.056 301.271 348.864 301.638 351.585H293.41C292.932 348.754 292.393 345.953 291.793 343.18H300.356Z" fill="#3F3D56"/>
<path d="M292.43 311.276C293.376 314.087 294.248 316.888 295.045 319.681H285.358C284.4 316.771 283.419 313.963 282.435 311.276H292.43Z" fill="#3F3D56"/>
<path d="M298.288 332.546C298.912 335.394 299.472 338.196 299.965 340.95H291.3C290.652 338.102 289.956 335.3 289.212 332.546H298.288Z" fill="#3F3D56"/>
<path d="M303.888 385.719C303.861 389.341 303.742 391.379 303.742 391.379L303.827 393.009H294.38C294.758 390.6 295.046 388.17 295.245 385.719H303.888Z" fill="#3F3D56"/>
<path d="M295.67 321.911C296.444 324.739 297.15 327.54 297.786 330.316H288.599C287.794 327.442 286.955 324.641 286.08 321.911H295.67Z" fill="#3F3D56"/>
<path d="M227.962 287.165C231.324 280.146 234.707 274.91 238.004 271.052L239.726 273.694L239.579 269.306C240.71 268.111 241.925 266.998 243.215 265.976L245.568 269.586L245.395 264.424C246.795 263.52 248.295 262.781 249.865 262.221L251.606 264.891L251.5 261.729C257.504 260.224 262.438 262.285 265.296 264.045L267.013 263.789L264.069 262.562C264.337 260.919 264.795 259.312 265.433 257.774L270.549 257.012L266.568 255.352C267.342 253.901 268.219 252.507 269.192 251.181L273.541 250.533L270.628 249.318C273.833 245.384 278.38 241.117 284.687 236.548C284.687 236.548 285.154 240.618 285.414 246.292L281.142 250.656L285.531 249.522C285.577 251.265 285.596 253.1 285.575 254.972L282.424 258.19L285.523 257.39C285.478 258.821 285.405 260.26 285.299 261.682C287.981 261.035 290.782 261.051 293.457 261.729L293.351 264.891L295.092 262.221C296.662 262.781 298.162 263.52 299.562 264.424L299.389 269.586L301.742 265.976C303.032 266.998 304.247 268.111 305.378 269.306L305.231 273.694L306.953 271.052C310.25 274.91 313.633 280.146 316.995 287.165C316.995 287.165 312.902 286.889 307.266 286.12L303.739 281.138L304.063 285.652C302.339 285.383 300.528 285.071 298.688 284.712L296.086 281.038L296.316 284.226C293.749 283.672 291.175 283.023 288.744 282.267L286.998 283.889L290.121 283.238C290.83 284.745 291.363 286.328 291.708 287.957L287.921 291.475L292.143 290.596C292.327 292.229 292.394 293.874 292.342 295.517L289.123 298.508L292.213 297.864C291.798 302.919 290.466 309.006 287.852 316.336C287.852 316.336 285.162 313.244 281.734 308.711L282.785 302.7L279.808 306.113C278.783 304.702 277.727 303.2 276.685 301.644L277.46 297.211L275.358 299.621C273.262 296.42 271.411 293.067 269.818 289.589C267.938 292.038 265.924 294.382 263.786 296.61L262.175 293.847L262.101 298.347C260.784 299.679 259.465 300.956 258.192 302.15L255.911 298.238L255.811 304.339C251.589 308.146 248.365 310.678 248.365 310.678C247.179 302.988 247.017 296.76 247.563 291.717L250.476 292.93L247.878 289.388C248.137 287.764 248.512 286.161 249.001 284.592L252.982 286.249L251.089 283.668C250.276 283.863 249.46 284.05 248.641 284.226L248.871 281.038L246.269 284.712C244.429 285.071 242.618 285.383 240.893 285.652L241.218 281.138L237.691 286.12C232.054 286.889 227.962 287.165 227.962 287.165Z" fill="#0666F7"/>
<path d="M208.331 421.768C233.514 421.768 253.93 419.833 253.93 417.446C253.93 415.059 233.514 413.124 208.331 413.124C183.147 413.124 162.732 415.059 162.732 417.446C162.732 419.833 183.147 421.768 208.331 421.768Z" fill="#3F3D56"/>
<path d="M318.077 421.768C343.261 421.768 363.676 419.833 363.676 417.446C363.676 415.059 343.261 413.124 318.077 413.124C292.894 413.124 272.479 415.059 272.479 417.446C272.479 419.833 292.894 421.768 318.077 421.768Z" fill="#3F3D56"/>
<path d="M352.702 373.457C352.702 373.457 355.994 396.285 340.187 409.781C329.958 418.514 315.372 419.944 303.402 413.797C298.957 411.516 294.214 408.049 289.686 402.817C287.976 400.835 286.4 398.741 284.968 396.55C282.889 393.363 281.057 390.023 279.487 386.558C278.498 384.4 277.553 382.091 276.652 379.631C276.479 379.158 276.318 378.695 276.164 378.235C267.956 353.876 283.92 346.769 298.573 345.065C301.648 344.72 304.741 344.564 307.835 344.599C311.468 344.617 315.096 344.873 318.696 345.365C318.696 345.365 318.996 345.368 319.537 345.39C322.329 345.519 325.109 345.827 327.862 346.313C339.183 348.298 356.51 354.447 352.702 373.457Z" fill="#0666F7"/>
<path d="M251.92 379.631C244.705 399.409 234.315 409.102 225.17 413.797C213.2 419.944 198.614 418.514 188.385 409.781C187.405 408.945 186.476 408.052 185.603 407.105C183.811 405.168 182.253 403.027 180.962 400.727C179.329 397.801 178.073 394.68 177.225 391.438C176.292 387.883 175.756 384.236 175.626 380.563C175.514 378.191 175.595 375.815 175.871 373.457C172.306 355.66 187.263 349.137 198.475 346.748C201.718 346.062 205.007 345.62 208.315 345.424C209.308 345.368 209.877 345.365 209.877 345.365C215.774 344.57 221.739 344.393 227.674 344.837C243.159 346.084 261.705 352.814 251.92 379.631Z" fill="#0666F7"/>
<path opacity="0.2" d="M208.315 345.424L177.225 391.438C176.292 387.883 175.756 384.236 175.626 380.563L198.475 346.748C201.718 346.062 205.007 345.62 208.315 345.424Z" fill="white"/>
<path opacity="0.2" d="M227.674 344.837L185.603 407.105C183.811 405.168 182.253 403.027 180.962 400.727L218.864 344.633C221.802 344.542 224.743 344.61 227.674 344.837Z" fill="white"/>
<path opacity="0.2" d="M307.835 344.599L279.487 386.558C278.498 384.4 277.553 382.091 276.652 379.631C276.479 379.158 276.318 378.695 276.164 378.235L298.573 345.065C301.648 344.72 304.741 344.564 307.835 344.599Z" fill="white"/>
<path opacity="0.2" d="M327.862 346.313L289.686 402.817C287.976 400.835 286.4 398.741 284.968 396.55L319.537 345.39C322.329 345.519 325.109 345.827 327.862 346.313Z" fill="white"/>
<path d="M360.121 371.296H353.046C356.177 345.661 318.696 345.365 318.696 345.365C312.753 344.565 306.744 344.392 300.765 344.849V344.747H227.498V344.824C221.621 344.398 215.716 344.579 209.877 345.365C209.877 345.365 172.395 345.661 175.527 371.296H168.76V378.087H175.588C175.52 385.465 176.987 400.049 188.385 409.781C198.614 418.514 213.2 419.944 225.17 413.797C234.315 409.102 244.705 399.409 251.92 379.631C254.392 372.855 255.055 367.362 254.416 362.915C260.992 362.585 267.58 362.585 274.156 362.915C273.517 367.362 274.18 372.855 276.652 379.631C283.867 399.409 294.258 409.102 303.402 413.797C315.372 419.944 329.958 418.514 340.187 409.781C351.586 400.049 353.052 385.465 352.984 378.087H360.121V371.296ZM248.662 379.757C241.796 398.579 231.78 407.383 223.188 411.445C212.736 416.387 200.281 415.014 191.309 407.731C180.465 398.927 179.021 385.397 179.061 378.501C179.08 375.759 178.956 373.024 178.848 370.286C177.991 348.767 210.328 348.514 210.328 348.514C210.328 348.514 263.04 340.352 248.662 379.757ZM274.441 361.369C267.681 360.845 260.891 360.845 254.131 361.369C252.435 353.81 246.718 349.55 239.93 347.217H288.643C281.854 349.55 276.137 353.81 274.441 361.369H274.441ZM350.058 370.187C349.947 372.95 349.823 375.713 349.842 378.476C349.885 385.437 348.426 399.094 337.482 407.975C328.431 415.325 315.867 416.715 305.322 411.732C296.647 407.636 286.532 398.751 279.598 379.745C265.09 339.975 318.288 348.214 318.288 348.214C318.288 348.214 350.921 348.467 350.058 370.187Z" fill="#3F3D56"/>
<path d="M215.871 415.052C215.836 414.995 215.011 413.618 214.725 410.76C214.462 408.138 214.631 403.718 216.927 397.553C221.275 385.873 215.924 376.449 215.87 376.355L216.134 376.202C217.164 378.171 217.908 380.276 218.344 382.454C219.422 387.527 219.029 392.801 217.213 397.659C212.871 409.319 216.099 414.839 216.132 414.893L215.871 415.052Z" fill="#3F3D56"/>
<path d="M214.171 375.669C215.266 375.669 216.154 374.782 216.154 373.689C216.154 372.595 215.266 371.708 214.171 371.708C213.076 371.708 212.188 372.595 212.188 373.689C212.188 374.782 213.076 375.669 214.171 375.669Z" fill="#3F3D56"/>
<path d="M220.426 382.981C221.521 382.981 222.409 382.095 222.409 381.001C222.409 379.907 221.521 379.02 220.426 379.02C219.331 379.02 218.443 379.907 218.443 381.001C218.443 382.095 219.331 382.981 220.426 382.981Z" fill="#3F3D56"/>
<path d="M216.154 387.856C217.25 387.856 218.137 386.969 218.137 385.876C218.137 384.782 217.25 383.895 216.154 383.895C215.059 383.895 214.171 384.782 214.171 385.876C214.171 386.969 215.059 387.856 216.154 387.856Z" fill="white"/>
<path d="M221.341 391.969C222.437 391.969 223.324 391.082 223.324 389.989C223.324 388.895 222.437 388.008 221.341 388.008C220.246 388.008 219.358 388.895 219.358 389.989C219.358 391.082 220.246 391.969 221.341 391.969Z" fill="white"/>
<path d="M214.629 398.367C215.724 398.367 216.612 397.481 216.612 396.387C216.612 395.293 215.724 394.407 214.629 394.407C213.533 394.407 212.645 395.293 212.645 396.387C212.645 397.481 213.533 398.367 214.629 398.367Z" fill="#3F3D56"/>
<path d="M217.07 415.125C217.07 415.125 215.086 410.25 221.036 406.594L217.07 415.125Z" fill="#3F3D56"/>
<path d="M214.63 415.036C214.63 415.036 213.728 409.852 206.742 409.897L214.63 415.036Z" fill="#3F3D56"/>
<path d="M195.755 300.338C195.751 300.657 195.669 300.97 195.517 301.25C195.364 301.53 195.146 301.769 194.88 301.946L194.806 301.993H161.789L161.922 301.588C161.944 301.517 164.361 294.513 175.061 295.865C176.069 295.519 185.918 292.309 191.813 295.917C194.429 297.516 195.755 299.004 195.755 300.338Z" fill="#F1F1F1"/>
<path d="M256.966 324.108C256.962 324.427 256.88 324.74 256.728 325.02C256.575 325.3 256.356 325.539 256.091 325.716L256.017 325.762H223L223.133 325.358C223.154 325.287 225.572 318.283 236.271 319.635C237.279 319.289 247.129 316.078 253.024 319.687C255.639 321.286 256.966 322.774 256.966 324.108Z" fill="#F1F1F1"/>
<path d="M270.877 228.411C270.873 228.73 270.791 229.043 270.639 229.323C270.487 229.603 270.268 229.842 270.002 230.019L269.928 230.065H236.911L237.044 229.661C237.066 229.59 239.483 222.586 250.183 223.938C251.191 223.592 261.04 220.382 266.936 223.99C269.551 225.589 270.877 227.077 270.877 228.411Z" fill="#F1F1F1"/>
<path d="M99.9526 387.63L102.777 396.361C102.777 396.361 100.222 404.554 101.432 413.687C102.643 422.821 101.97 423.089 101.97 423.089C101.97 423.089 89.8746 422.394 91.0852 426.021C92.2957 429.647 104.122 427.522 104.122 427.522C104.122 427.522 106.394 426.911 107.47 420.464C108.546 414.017 111.251 401.599 111.251 401.599L108.707 389.876L99.9526 387.63Z" fill="#FFB8B8"/>
<path d="M100.894 369.766C100.894 369.766 95.7828 371.647 95.7828 376.751C95.7828 381.855 97.666 388.839 98.8765 389.242C100.087 389.645 108.158 395.152 109.637 391.257C111.117 387.361 100.894 369.766 100.894 369.766Z" fill="#D0CDE1"/>
<path d="M143.668 430.208L154.429 429.805L162.634 428.596L160.213 436.655L140.306 437.193L143.668 430.208Z" fill="#FFB8B8"/>
<path d="M159.137 431.283C159.137 431.283 159.002 428.328 157.792 428.462C156.581 428.596 157.388 427.388 158.464 427.119C159.54 426.85 162.634 425.507 162.634 425.507L174.874 426.313C174.874 426.313 182.81 433.297 179.582 437.058C176.354 440.819 168.014 437.461 168.014 437.461L159.002 437.596C159.002 437.596 156.043 432.76 159.137 431.283Z" fill="#2F2E41"/>
<path d="M163.979 420.941L167.88 439.207L175.951 437.596L171.377 414.762L166.535 412.21L163.979 420.941Z" fill="#FFB8B8"/>
<path d="M117.573 418.657C117.573 418.657 94.9758 428.865 104.526 439.207C104.526 439.207 104.526 444.043 114.614 443.103C124.702 442.162 144.206 440.416 145.148 440.954C146.089 441.491 149.049 430.343 146.493 429.805C143.937 429.268 140.843 428.596 140.843 428.596C140.843 428.596 143.534 428.194 143.534 425.91C143.534 425.91 151.201 425.373 153.487 420.538C155.774 415.702 157.926 412.076 157.926 412.076L163.172 425.507C163.172 425.507 169.225 414.359 173.798 419.329C173.798 419.329 168.687 387.227 164.786 384.272C160.885 381.317 158.195 380.377 154.563 383.063C150.932 385.75 147.569 392.6 147.569 392.6L117.573 418.657Z" fill="#2F2E41"/>
<path d="M171.512 433.7C170.571 434.409 169.673 435.171 168.821 435.984C167.745 437.058 166.266 436.521 166.131 435.984C165.997 435.447 163.576 436.387 163.307 440.282C163.038 444.177 161.423 447.669 165.728 448.878C170.032 450.087 169.898 453.579 169.898 453.579C173.303 455.211 177.212 455.452 180.793 454.251C186.846 452.236 184.694 450.087 184.694 450.087L176.623 436.79C176.623 436.79 174.471 432.76 171.512 433.7Z" fill="#2F2E41"/>
<path d="M149.183 367.08C149.183 367.08 162.096 371.512 163.441 372.452C164.786 373.393 170.839 377.825 167.88 380.108C164.921 382.392 162.499 383.869 156.716 382.123C150.932 380.377 144.475 375.004 144.475 375.004L149.183 367.08Z" fill="#FFB8B8"/>
<path d="M136.27 361.17C136.27 361.17 141.382 360.23 145.013 362.244C148.645 364.259 151.739 368.289 151.739 368.289C151.739 368.289 148.376 375.407 145.955 376.482C143.534 377.556 139.095 372.184 139.095 372.184L136.27 361.17Z" fill="#D0CDE1"/>
<path d="M112.731 357.275C112.731 357.275 112.866 362.513 112.327 363.05C111.789 363.588 118.784 379.437 126.451 372.452C134.118 365.468 128.2 362.647 128.2 362.647C128.2 362.647 125.375 357.409 125.509 356.872C125.644 356.335 113 356.872 113 356.872L112.731 357.275Z" fill="#FFB8B8"/>
<path opacity="0.1" d="M112.731 357.275C112.731 357.275 112.866 362.513 112.327 363.05C111.789 363.588 118.784 379.437 126.451 372.452C134.118 365.468 128.2 362.647 128.2 362.647C128.2 362.647 125.375 357.409 125.509 356.872C125.644 356.335 113 356.872 113 356.872L112.731 357.275Z" fill="black"/>
<path d="M114.883 367.348C114.883 367.348 119.995 370.841 122.147 370.035C124.299 369.229 126.989 365.737 127.258 365.468C127.527 365.199 141.247 392.734 141.247 392.734C141.247 392.734 139.229 402.808 133.849 405.763C128.469 408.718 128.536 411.068 127.863 413.083C127.191 415.098 118.515 406.703 118.515 406.703L113 383.332V369.095L114.883 367.348Z" fill="#D0CDE1"/>
<path d="M112.664 361.103C112.664 361.103 110.982 360.767 109.234 362.244C107.485 363.722 99.2801 369.229 99.6836 369.766C100.087 370.303 103.719 377.959 104.526 381.049C105.333 384.138 106.544 384.541 106.544 384.541C106.544 384.541 109.368 386.556 108.965 388.033C108.561 389.511 106.813 409.658 109.234 414.09C111.655 418.523 111.251 422.418 110.579 423.492C109.906 424.567 117.035 420.403 117.035 420.403C117.035 420.403 127.662 411.807 128.469 409.255C128.991 407.501 129.351 405.702 129.545 403.882C129.545 403.882 122.685 376.751 120.533 375.273C118.38 373.796 112.664 361.103 112.664 361.103Z" fill="#575A89"/>
<path d="M127.441 361.209C127.441 361.209 130.755 359.155 131.428 359.692C132.1 360.23 138.422 360.23 138.557 360.767C138.691 361.304 138.96 374.199 143.534 377.556C148.107 380.914 145.148 387.63 145.148 387.63L148.51 393.003C148.51 393.003 130.218 410.597 131.428 404.554C131.495 404.218 131.428 404.151 131.428 404.151C131.428 404.151 124.299 373.661 125.24 372.049C126.182 370.438 127.893 363.128 127.441 361.209Z" fill="#575A89"/>
<path d="M155.64 373.527L137.346 379.84C137.346 379.84 119.187 384.138 122.012 389.108C124.837 394.077 136.808 385.615 136.808 385.615L161.169 382.89C161.169 382.89 170.839 374.736 155.64 373.527Z" fill="#FFB8B8"/>
<path d="M119.995 362.244C125.492 362.244 129.948 357.794 129.948 352.305C129.948 346.816 125.492 342.366 119.995 342.366C114.497 342.366 110.041 346.816 110.041 352.305C110.041 357.794 114.497 362.244 119.995 362.244Z" fill="#FFB8B8"/>
<path d="M112.068 342.427L110.227 341.759C110.227 341.759 114.076 337.914 119.433 338.249L117.926 336.744C117.926 336.744 121.609 335.407 124.956 338.917C126.716 340.762 128.752 342.931 130.022 345.374H131.993L131.17 347.018L134.051 348.661L131.094 348.366C131.374 349.785 131.278 351.252 130.815 352.623L130.145 354.461C130.145 354.461 127.467 349.113 127.467 348.444V350.116C127.467 350.116 125.626 348.611 125.626 347.608L124.621 348.778L124.119 346.94L117.926 348.778L118.93 347.274L115.081 347.776L116.587 345.937C116.587 345.937 112.235 348.11 112.068 349.948C111.9 351.787 109.724 354.127 109.724 354.127L108.72 352.456C108.72 352.456 107.214 344.934 112.068 342.427Z" fill="#2F2E41"/>
<path d="M128.839 352.844C128.839 352.844 129.166 355.112 127.595 356.453C127.094 356.874 126.479 357.136 125.829 357.207C125.178 357.278 124.521 357.155 123.941 356.852C123.42 356.58 122.958 356.209 122.578 355.761C122.408 355.564 122.252 355.356 122.109 355.139C121.903 354.822 121.721 354.49 121.565 354.146C121.467 353.931 121.373 353.702 121.283 353.458C121.266 353.411 121.25 353.365 121.235 353.319C120.419 350.899 122.005 350.193 123.461 350.024C123.767 349.989 124.074 349.974 124.381 349.977C124.742 349.979 125.103 350.005 125.46 350.053C125.46 350.053 125.49 350.054 125.544 350.056C125.821 350.069 126.097 350.099 126.371 350.148C127.495 350.345 129.217 350.956 128.839 352.844Z" fill="#0666F7"/>
<path d="M118.826 353.458C118.109 355.423 117.077 356.386 116.169 356.852C115.588 357.155 114.931 357.278 114.281 357.207C113.63 357.136 113.015 356.874 112.514 356.453C112.417 356.37 112.324 356.281 112.238 356.187C112.06 355.995 111.905 355.782 111.777 355.554C111.614 355.263 111.49 354.953 111.405 354.631C111.313 354.278 111.259 353.915 111.247 353.55C111.235 353.315 111.243 353.079 111.271 352.844C110.917 351.076 112.403 350.428 113.517 350.191C113.839 350.123 114.165 350.079 114.494 350.059C114.593 350.054 114.649 350.053 114.649 350.053C115.235 349.974 115.828 349.957 116.417 350.001C117.956 350.125 119.798 350.794 118.826 353.458Z" fill="#0666F7"/>
<path opacity="0.2" d="M114.494 350.059L111.405 354.631C111.313 354.278 111.259 353.915 111.247 353.55L113.517 350.191C113.839 350.123 114.165 350.079 114.494 350.059Z" fill="white"/>
<path opacity="0.2" d="M116.417 350.001L112.238 356.187C112.06 355.995 111.905 355.782 111.777 355.554L115.542 349.981C115.834 349.972 116.126 349.978 116.417 350.001Z" fill="white"/>
<path opacity="0.2" d="M124.381 349.977L121.565 354.146C121.467 353.932 121.373 353.702 121.283 353.458C121.266 353.411 121.25 353.365 121.235 353.319L123.461 350.024C123.767 349.989 124.074 349.974 124.381 349.977Z" fill="white"/>
<path opacity="0.2" d="M126.371 350.148L122.578 355.761C122.408 355.564 122.252 355.356 122.109 355.139L125.544 350.056C125.821 350.069 126.097 350.099 126.371 350.148Z" fill="white"/>
<path d="M129.576 352.63H128.873C129.184 350.083 125.46 350.053 125.46 350.053C124.87 349.974 124.273 349.957 123.679 350.002V349.992H116.4V350C115.816 349.957 115.229 349.975 114.649 350.053C114.649 350.053 110.926 350.083 111.237 352.63H110.564V353.304H111.243C111.236 354.037 111.382 355.486 112.514 356.453C113.015 356.874 113.63 357.136 114.281 357.207C114.931 357.278 115.588 357.155 116.169 356.852C117.077 356.386 118.109 355.423 118.826 353.458C119.044 352.933 119.129 352.363 119.074 351.797C119.727 351.764 120.382 351.764 121.035 351.797C120.98 352.363 121.066 352.933 121.283 353.458C122 355.423 123.032 356.386 123.941 356.852C124.521 357.155 125.178 357.278 125.829 357.207C126.479 357.136 127.094 356.874 127.595 356.453C128.728 355.486 128.873 354.037 128.867 353.304H129.576V352.63ZM118.502 353.47C117.82 355.34 116.825 356.215 115.972 356.618C115.463 356.861 114.895 356.955 114.335 356.89C113.775 356.824 113.244 356.602 112.805 356.249C111.727 355.375 111.584 354.031 111.588 353.345C111.59 353.073 111.577 352.801 111.567 352.529C111.482 350.391 114.694 350.366 114.694 350.366C114.694 350.366 119.931 349.555 118.502 353.47ZM121.064 351.643C120.392 351.591 119.717 351.591 119.046 351.643C118.877 350.893 118.309 350.469 117.635 350.237H122.474C121.8 350.469 121.232 350.893 121.064 351.643ZM128.576 352.52C128.565 352.794 128.553 353.068 128.554 353.343C128.559 354.035 128.414 355.391 127.327 356.274C126.883 356.63 126.348 356.854 125.783 356.92C125.218 356.986 124.645 356.891 124.132 356.647C123.27 356.24 122.265 355.357 121.576 353.469C120.135 349.518 125.42 350.337 125.42 350.337C125.42 350.337 128.662 350.362 128.576 352.52Z" fill="#3F3D56"/>
</g>
<defs>
<linearGradient id="paint0_linear_265_4008" x1="269" y1="0" x2="269" y2="649" gradientUnits="userSpaceOnUse">
<stop stop-color="#0CDAF6" stop-opacity="0.72"/>
<stop offset="1" stop-color="#0666F7"/>
</linearGradient>
<clipPath id="clip0_265_4008">
<rect width="356" height="260" fill="white" transform="translate(91 195)"/>
</clipPath>
</defs>
</svg>
