<svg width="517" height="649" viewBox="0 0 517 649" fill="none" xmlns="http://www.w3.org/2000/svg">
<path d="M0 0H507C512.523 0 517 4.47715 517 10V639C517 644.523 512.523 649 507 649H0V0Z" fill="url(#paint0_linear_265_3926)"/>
<g filter="url(#filter0_d_265_3926)">
<rect x="129" y="132" width="264" height="369" fill="white" fill-opacity="0.01" shape-rendering="crispEdges"/>
<rect x="129.5" y="132.5" width="263" height="368" stroke="#F0F0F0" shape-rendering="crispEdges"/>
</g>
<g clip-path="url(#clip0_265_3926)">
<path d="M366.313 166.282H153.532C153.39 166.279 153.255 166.222 153.155 166.121C153.056 166.021 153 165.887 153 165.747C153 165.607 153.056 165.472 153.155 165.372C153.255 165.272 153.39 165.214 153.532 165.211H366.313C366.455 165.214 366.59 165.272 366.69 165.372C366.789 165.472 366.845 165.607 366.845 165.747C366.845 165.887 366.789 166.021 366.69 166.121C366.59 166.222 366.455 166.279 366.313 166.282Z" fill="#CACACA"/>
<path d="M165.504 158.784C168.735 158.784 171.355 156.146 171.355 152.892C171.355 149.638 168.735 147 165.504 147C162.272 147 159.653 149.638 159.653 152.892C159.653 156.146 162.272 158.784 165.504 158.784Z" fill="#3F3D56"/>
<path d="M185.716 158.784C188.947 158.784 191.567 156.146 191.567 152.892C191.567 149.638 188.947 147 185.716 147C182.485 147 179.865 149.638 179.865 152.892C179.865 156.146 182.485 158.784 185.716 158.784Z" fill="#3F3D56"/>
<path d="M205.928 158.784C209.16 158.784 211.779 156.146 211.779 152.892C211.779 149.638 209.16 147 205.928 147C202.697 147 200.077 149.638 200.077 152.892C200.077 156.146 202.697 158.784 205.928 158.784Z" fill="#3F3D56"/>
<path d="M354.203 150.604H339.841C339.557 150.598 339.286 150.482 339.088 150.282C338.889 150.082 338.777 149.813 338.777 149.533C338.777 149.253 338.889 148.984 339.088 148.783C339.286 148.583 339.557 148.468 339.841 148.461H354.203C354.487 148.468 354.757 148.583 354.956 148.783C355.155 148.984 355.266 149.253 355.266 149.533C355.266 149.813 355.155 150.082 354.956 150.282C354.757 150.482 354.487 150.598 354.203 150.604Z" fill="#3F3D56"/>
<path d="M354.203 154.621H339.841C339.557 154.615 339.286 154.499 339.088 154.299C338.889 154.099 338.777 153.83 338.777 153.55C338.777 153.27 338.889 153.001 339.088 152.801C339.286 152.6 339.557 152.485 339.841 152.479H354.203C354.487 152.485 354.757 152.6 354.956 152.801C355.155 153.001 355.266 153.27 355.266 153.55C355.266 153.83 355.155 154.099 354.956 154.299C354.757 154.499 354.487 154.615 354.203 154.621Z" fill="#3F3D56"/>
<path d="M354.203 158.638H339.841C339.557 158.632 339.286 158.516 339.088 158.316C338.889 158.116 338.777 157.847 338.777 157.567C338.777 157.287 338.889 157.018 339.088 156.818C339.286 156.617 339.557 156.502 339.841 156.496H354.203C354.487 156.502 354.757 156.617 354.956 156.818C355.155 157.018 355.266 157.287 355.266 157.567C355.266 157.847 355.155 158.116 354.956 158.316C354.757 158.516 354.487 158.632 354.203 158.638Z" fill="#3F3D56"/>
<path d="M335.74 316.848H184.105C179.419 316.843 174.926 315.007 171.613 311.743C168.3 308.479 166.436 304.053 166.431 299.438V218.085C166.436 213.469 168.3 209.044 171.613 205.78C174.927 202.516 179.419 200.681 184.105 200.676H335.74C340.426 200.681 344.918 202.516 348.231 205.78C351.545 209.044 353.409 213.469 353.414 218.085V299.438C353.409 304.053 351.545 308.479 348.232 311.743C344.918 315.007 340.426 316.843 335.74 316.848Z" fill="#F2F2F2"/>
<path d="M259.922 287.059C275.788 287.059 288.649 274.39 288.649 258.762C288.649 243.133 275.788 230.464 259.922 230.464C244.057 230.464 231.195 243.133 231.195 258.762C231.195 274.39 244.057 287.059 259.922 287.059Z" fill="#B66397"/>
<path d="M254.397 272C253.99 271.999 253.59 271.896 253.235 271.702C252.854 271.5 252.537 271.199 252.317 270.833C252.096 270.466 251.982 270.047 251.985 269.621V250.011C251.985 249.586 252.101 249.169 252.321 248.803C252.541 248.437 252.856 248.135 253.235 247.931C253.613 247.726 254.04 247.625 254.472 247.639C254.903 247.652 255.323 247.779 255.687 248.007L274.572 257.813C274.914 258.027 275.196 258.323 275.392 258.673C275.587 259.023 275.69 259.417 275.69 259.816C275.69 260.216 275.587 260.609 275.392 260.959C275.196 261.31 274.914 261.606 274.572 261.82L255.687 271.625C255.302 271.869 254.855 271.999 254.397 272Z" fill="white"/>
<path d="M351.557 365.241C351.003 364.869 350.539 364.381 350.196 363.813C349.854 363.245 349.643 362.61 349.576 361.952C349.51 361.295 349.591 360.631 349.814 360.008C350.036 359.385 350.395 358.817 350.864 358.345L343.6 343.969L352.01 344.977L357.618 358.475C358.371 359.304 358.789 360.376 358.793 361.489C358.796 362.601 358.386 363.676 357.639 364.51C356.891 365.344 355.86 365.879 354.739 366.013C353.618 366.148 352.486 365.873 351.557 365.241H351.557Z" fill="#FFB8B8"/>
<path d="M322.11 315.775L327.62 315.025C327.62 315.025 328.152 323.209 330.788 324.449C333.424 325.689 332.535 325.893 332.846 327.206C333.146 328.131 333.639 328.982 334.295 329.706C334.95 330.43 335.753 331.01 336.652 331.408C338.74 332.313 348.237 355.062 348.237 355.062L356.234 353.225C355.494 351.25 355.007 349.192 354.784 347.098C354.503 343.932 350.861 336.463 349.661 335.354C348.462 334.245 348.936 332.291 348.314 329.665C347.693 327.039 348.124 329.474 347.088 325.097C346.052 320.721 334.404 294.493 333.916 290.452C333.428 286.411 327.712 284.033 327.712 284.033L323.269 285.053L322.11 315.775Z" fill="#3F3D56"/>
<path d="M300.497 329.317L291.586 370.523L340.225 366.911L325.667 326.68L300.497 329.317Z" fill="#FFB8B8"/>
<path d="M405.197 462.562C403.749 467.718 401.488 472.619 398.497 477.085C391.814 487.039 382.249 494.652 371.737 500.744C371.008 501.172 370.269 501.589 369.53 502H362.156L361.899 501.42V501.414L361.599 500.744L361.562 500.665L361.545 500.744L361.251 502H357.631C357.331 501.583 357.036 501.167 356.747 500.744C356.324 500.127 355.917 499.505 355.531 498.872C354.851 497.765 354.243 496.616 353.711 495.432C353.646 495.3 353.593 495.169 353.539 495.037L353.78 494.778L352.779 490.463L354.792 490.136L352.586 483.431C352.666 483.183 352.757 482.935 352.854 482.687C354.091 479.601 356.415 477.296 359.173 475.36C362.011 473.36 365.316 471.757 368.352 470.09C369.777 469.304 371.18 468.476 372.545 467.6V467.595C374.291 466.481 375.985 465.291 377.628 464.023C377.656 464.006 377.683 463.986 377.708 463.965C377.731 463.949 377.752 463.932 377.772 463.912C385.135 458.246 391.365 451.283 396.147 443.376C396.147 443.376 396.148 443.376 396.149 443.375C396.149 443.375 396.15 443.375 396.15 443.374C396.151 443.374 396.151 443.373 396.151 443.373C396.152 443.372 396.152 443.371 396.152 443.37C396.312 443.117 396.462 442.864 396.612 442.606V442.6C398.57 439.283 400.256 435.817 401.652 432.234V432.229C401.759 431.965 401.855 431.702 401.957 431.438C402.096 431.67 402.23 431.902 402.359 432.134C402.359 432.134 402.36 432.134 402.361 432.135C402.361 432.135 402.362 432.135 402.362 432.136C402.363 432.136 402.363 432.137 402.364 432.137C402.364 432.138 402.364 432.139 402.364 432.139C407.559 441.292 408.051 452.317 405.197 462.562Z" fill="#F0F0F0"/>
<path d="M402.364 432.139C402.416 437.024 401.9 441.898 400.827 446.668C400.345 448.85 399.744 451.005 399.028 453.125C397.637 457.27 395.819 461.265 393.603 465.047C393.48 465.252 393.362 465.453 393.233 465.653V465.659C392.286 467.232 391.258 468.757 390.154 470.227C388.483 472.569 386.418 474.614 384.049 476.272C382.113 477.532 379.925 478.365 377.633 478.715C377.205 478.794 376.765 478.852 376.321 478.905C374.548 479.111 372.717 479.19 370.96 479.559C370.071 479.732 369.204 480.006 368.379 480.377C365.551 481.669 363.961 484.375 363.265 487.266C363.141 487.773 363.045 488.284 362.97 488.796C362.386 492.726 363.029 496.809 362.697 500.744C362.659 501.161 362.611 501.583 362.552 502H362.156L361.899 501.42V501.414C361.926 501.193 361.947 500.971 361.969 500.744C362.097 498.811 362.113 496.872 362.017 494.936C361.995 494.066 361.979 493.19 361.99 492.315C362.001 491.613 362.027 490.911 362.081 490.215V490.21C362.119 489.777 362.161 489.35 362.22 488.923C362.39 487.614 362.718 486.33 363.195 485.098C363.661 483.828 364.394 482.67 365.347 481.699C366.299 480.728 367.449 479.966 368.722 479.464C369.499 479.177 370.3 478.956 371.116 478.805C372.91 478.467 374.763 478.383 376.567 478.161C376.76 478.14 376.953 478.114 377.14 478.082C377.381 478.045 377.617 478.003 377.853 477.961C380.214 477.548 382.444 476.596 384.365 475.18C386.647 473.401 388.631 471.279 390.245 468.892C391.123 467.653 391.959 466.387 392.735 465.084C392.735 465.083 392.735 465.082 392.735 465.082C392.736 465.081 392.736 465.08 392.737 465.08C392.737 465.079 392.738 465.079 392.738 465.079C392.739 465.078 392.74 465.078 392.74 465.078C392.778 465.015 392.815 464.957 392.853 464.894L392.858 464.883C396.189 459.276 398.621 453.196 400.067 446.857C400.115 446.625 400.168 446.393 400.222 446.161C401.216 441.585 401.695 436.914 401.652 432.234V432.229C401.652 432.008 401.646 431.791 401.641 431.57C401.63 431.116 402.343 431.016 402.353 431.469C402.359 431.691 402.364 431.913 402.359 432.134C402.359 432.134 402.36 432.134 402.361 432.135C402.361 432.135 402.362 432.135 402.362 432.136C402.363 432.136 402.363 432.137 402.364 432.137C402.364 432.138 402.364 432.139 402.364 432.139Z" fill="white"/>
<path d="M392.927 465.51C394.968 466.531 397.311 466.805 399.537 466.281C401.763 465.758 403.728 464.472 405.081 462.653C405.353 462.284 404.784 461.85 404.511 462.219C403.255 463.915 401.424 465.113 399.35 465.596C397.276 466.079 395.095 465.816 393.201 464.854C392.789 464.646 392.518 465.303 392.927 465.51H392.927Z" fill="white"/>
<path d="M377.921 478.171C376.43 473.802 376.665 469.041 378.58 464.835C378.77 464.419 378.104 464.15 377.914 464.566C375.93 468.946 375.695 473.902 377.257 478.444C377.406 478.877 378.07 478.601 377.921 478.171L377.921 478.171Z" fill="white"/>
<path d="M400.429 446.226C399.556 445.993 398.755 445.55 398.098 444.937C397.442 444.324 396.951 443.559 396.668 442.713C396.525 442.278 395.861 442.555 396.004 442.987C396.321 443.92 396.864 444.764 397.588 445.443C398.312 446.122 399.193 446.616 400.156 446.882C400.244 446.914 400.342 446.913 400.429 446.877C400.516 446.841 400.586 446.773 400.625 446.688C400.661 446.601 400.66 446.504 400.623 446.417C400.587 446.331 400.517 446.262 400.429 446.226Z" fill="white"/>
<path d="M372.545 467.595V467.6C372.379 471.367 371.901 475.114 371.115 478.805V478.81C371.073 479.063 371.014 479.311 370.96 479.559C369.668 485.266 367.856 490.847 365.546 496.234C364.909 497.753 364.241 499.257 363.543 500.744C363.35 501.167 363.152 501.583 362.949 502H362.156L361.899 501.42V501.414L361.599 500.744L361.561 500.665L361.545 500.744L361.251 502H353.593L352.104 500.744L349.935 498.914L352.966 495.654L353.464 495.116L353.539 495.037L353.78 494.778L352.779 490.463L354.792 490.136L352.586 483.431L351.542 480.261L351.279 479.464L349.753 474.827L345.147 475.676L344.398 473.091C345.778 469.939 346.927 466.694 347.836 463.38C347.841 463.353 347.852 463.332 347.857 463.306C350.29 454.379 351.02 445.085 350.01 435.895V435.89C349.978 435.595 349.94 435.294 349.897 435.004V434.993C349.438 431.185 348.665 427.42 347.584 423.736C347.509 423.456 347.423 423.182 347.343 422.908C347.589 423.013 347.83 423.113 348.077 423.219L348.082 423.224H348.093C348.484 423.393 348.875 423.572 349.255 423.762C358.391 428.135 365.112 436.344 368.93 445.808C368.941 445.834 368.952 445.855 368.963 445.882C370.955 450.843 372.142 456.082 372.481 461.407C372.609 463.467 372.631 465.532 372.545 467.595Z" fill="#F0F0F0"/>
<path d="M358.648 502H357.802C357.534 501.573 357.245 501.156 356.956 500.744C356.495 500.106 356.021 499.482 355.531 498.872C355.108 498.344 354.685 497.822 354.262 497.3C353.823 496.756 353.389 496.213 352.966 495.654L353.464 495.116C353.545 495.221 353.625 495.327 353.711 495.432C355.082 497.21 356.565 498.919 357.834 500.744C358.118 501.156 358.391 501.573 358.648 502Z" fill="white"/>
<path d="M347.165 423.202C347.305 423.377 347.449 423.556 347.583 423.735C348.627 425.07 349.614 426.447 350.545 427.866C352.201 430.37 353.672 432.988 354.947 435.7C355.048 435.911 355.15 436.127 355.247 436.343C357.974 442.269 359.752 448.576 360.516 455.039C360.527 455.102 360.532 455.16 360.538 455.223C360.714 456.732 360.829 458.246 360.88 459.765C361.051 462.626 360.764 465.496 360.029 468.269C359.922 468.633 359.804 468.992 359.675 469.34C359.353 470.193 358.95 471.015 358.47 471.793C358.126 472.361 357.743 472.906 357.324 473.423C357.073 473.74 356.81 474.051 356.532 474.352C356.371 474.526 356.205 474.7 356.039 474.874C355.9 475.006 355.766 475.143 355.627 475.275C354.181 476.657 352.585 477.939 351.278 479.463L351.541 480.26C352.799 478.688 354.422 477.385 355.884 476.013C356.802 475.163 357.637 474.231 358.379 473.228C358.476 473.091 358.578 472.954 358.669 472.811C359.165 472.097 359.593 471.34 359.948 470.548C360.131 470.152 360.297 469.746 360.447 469.324C361.321 466.597 361.72 463.743 361.625 460.884C361.608 459.052 361.497 457.223 361.293 455.403C361.271 455.165 361.244 454.933 361.212 454.696C360.669 450.363 359.679 446.096 358.256 441.961C356.456 436.716 353.979 431.72 350.887 427.096C350.004 425.772 349.066 424.479 348.076 423.218C347.947 423.044 347.813 422.875 347.674 422.701C347.39 422.343 346.881 422.844 347.165 423.202Z" fill="white"/>
<path d="M360.957 455.469C363.211 455.074 365.248 453.903 366.706 452.165C368.164 450.427 368.947 448.235 368.915 445.98C368.913 445.889 368.875 445.801 368.808 445.736C368.742 445.672 368.653 445.635 368.559 445.634C368.466 445.633 368.376 445.667 368.308 445.73C368.24 445.793 368.2 445.88 368.195 445.972C368.229 448.071 367.499 450.113 366.138 451.729C364.777 453.345 362.875 454.428 360.775 454.784C360.318 454.861 360.504 455.547 360.957 455.469Z" fill="white"/>
<path d="M356.714 474.478C352.853 471.874 350.131 467.933 349.089 463.44C348.986 462.994 348.29 463.175 348.393 463.62C349.486 468.293 352.328 472.389 356.351 475.09C356.735 475.347 357.096 474.733 356.714 474.478Z" fill="white"/>
<path d="M355.16 435.623C354.321 435.955 353.411 436.076 352.512 435.976C351.613 435.876 350.753 435.557 350.01 435.049C349.63 434.787 349.27 435.401 349.647 435.661C350.471 436.219 351.42 436.57 352.413 436.682C353.406 436.795 354.412 436.667 355.343 436.309C355.434 436.282 355.511 436.223 355.558 436.142C355.606 436.062 355.621 435.967 355.6 435.876C355.575 435.785 355.515 435.708 355.433 435.66C355.35 435.613 355.252 435.6 355.16 435.623Z" fill="white"/>
<path d="M307.275 491.153H301.812L299.213 470.394L307.277 470.394L307.275 491.153Z" fill="#FFB8B8"/>
<path d="M310.215 501.372H306.338L305.646 497.767L303.874 501.372H293.591C293.098 501.372 292.618 501.217 292.221 500.929C291.824 500.642 291.531 500.236 291.384 499.773C291.238 499.309 291.245 498.812 291.406 498.353C291.567 497.894 291.872 497.498 292.278 497.222L300.489 491.635V487.99L309.126 488.498L310.215 501.372Z" fill="#2F2E41"/>
<path d="M358.914 488.476L353.575 489.616L346.567 469.872L354.448 468.188L358.914 488.476Z" fill="#FFB8B8"/>
<path d="M363.987 497.849L360.198 498.658L358.745 495.279L357.789 499.173L347.741 501.32C347.259 501.423 346.756 501.372 346.306 501.173C345.857 500.975 345.483 500.64 345.24 500.218C344.997 499.796 344.897 499.308 344.955 498.826C345.013 498.344 345.227 497.893 345.564 497.538L352.386 490.364L351.602 486.802L360.151 485.495L363.987 497.849Z" fill="#2F2E41"/>
<path d="M397.394 501.372C397.395 501.455 397.378 501.536 397.346 501.613C397.314 501.689 397.267 501.758 397.208 501.817C397.149 501.875 397.079 501.921 397.001 501.953C396.924 501.984 396.841 502 396.757 502H246.652C246.483 502 246.321 501.934 246.201 501.816C246.082 501.698 246.014 501.539 246.014 501.372C246.014 501.206 246.082 501.046 246.201 500.928C246.321 500.811 246.483 500.744 246.652 500.744H396.757C396.841 500.744 396.924 500.76 397.001 500.792C397.079 500.823 397.149 500.869 397.208 500.928C397.267 500.986 397.314 501.055 397.346 501.132C397.378 501.208 397.395 501.29 397.394 501.372Z" fill="#CCCCCC"/>
<path d="M290.344 398.424C294.179 419.182 292.995 405.988 292.995 405.988C292.995 405.988 290.119 409.291 292.037 411.179C293.954 413.068 292.037 416.84 292.037 416.84L298.89 471.75L299.961 476.498H307.458L307.994 470.168L311.418 439.471C311.418 439.471 313.335 435.693 312.376 434.749C311.418 433.805 313.335 428.144 313.335 428.144L315.729 383.326L324.688 410.762C324.688 410.762 323.248 412.651 324.688 414.065C326.123 415.479 334.885 444.187 334.885 444.187L345.481 469.113L346.017 469.64L348.695 476.498L355.657 473.333L351.524 438.189L351.353 437.434L351.17 436.638C351.17 436.638 352.129 434.28 350.694 432.861C350.274 432.428 349.967 431.901 349.8 431.326C349.633 430.751 349.611 430.144 349.735 429.558C349.782 429.509 349.825 429.456 349.864 429.4C350.033 429.171 350.15 428.908 350.207 428.63C350.335 428.039 350.223 427.211 349.253 426.256C348.98 425.97 348.751 425.647 348.573 425.296C347.117 422.579 346.383 416.824 346.383 416.824C346.383 416.824 345.087 371.24 340.845 364.277C340.62 363.913 330.722 338.956 330.487 338.813C325.699 335.986 297.819 339.868 297.819 339.868C297.819 339.868 289.327 363.839 289.225 364.461C288.673 367.959 287.094 380.815 290.344 398.424Z" fill="#2F2E41"/>
<path d="M268.529 264.256C268.165 264.811 267.929 265.438 267.837 266.093C267.746 266.747 267.801 267.413 267.999 268.044C268.198 268.676 268.534 269.256 268.985 269.745C269.435 270.235 269.99 270.621 270.608 270.876L269.581 286.903L276.933 282.757L276.781 268.173C277.148 267.121 277.11 265.973 276.675 264.947C276.24 263.92 275.438 263.087 274.421 262.604C273.404 262.121 272.242 262.023 271.156 262.327C270.07 262.632 269.135 263.318 268.529 264.256H268.529Z" fill="#FFB8B8"/>
<path d="M296.931 290.282C296.931 290.282 300.871 284.498 308.627 276.858C312.733 275.51 319.847 276.296 322.313 276.858C333.718 291.688 334.436 290.703 337.405 298.988C338.175 301.137 338.56 303.201 338.217 304.887C336.849 311.627 327.261 328.278 327.717 330.075C328.173 331.873 331.367 334.12 328.173 334.12C324.98 334.12 298.513 331.193 299.425 329.845C300.338 328.497 296.931 290.282 296.931 290.282Z" fill="#3F3D56"/>
<path d="M310.863 271.106C318.159 271.106 324.073 265.28 324.073 258.094C324.073 250.907 318.159 245.081 310.863 245.081C303.567 245.081 297.653 250.907 297.653 258.094C297.653 265.28 303.567 271.106 310.863 271.106Z" fill="#FFB8B8"/>
<path d="M313.155 285.873C313.155 285.873 302.206 276.303 288.372 295.689L277.795 300.7L277.468 288.698L279.337 286.296L278.54 273.4L268.22 275.107L267.455 283.482L265.687 287.115L266.841 290.197L265.625 303.506L266.222 308.216C266.222 308.216 266.947 314.234 271.219 316.739C272.356 317.41 273.594 317.901 274.886 318.194C277.417 318.764 280.475 318.633 284.104 317.205C291.644 314.293 299 310.939 306.134 307.161L313.155 285.873Z" fill="#3F3D56"/>
<path d="M340.437 285.986C343.232 285.01 346.028 284.033 348.823 283.053C348.341 282.257 347.728 281.546 347.008 280.949C344.346 278.759 340.672 278.364 337.293 277.625C333.909 276.887 330.235 275.373 328.998 272.186C327.712 268.873 329.576 265.297 330.658 261.921C332.173 257.21 332.141 251.95 330.112 247.435C328.082 242.919 323.958 239.258 319.064 238.182C314.169 237.111 308.637 238.857 305.627 242.803C303.688 242.23 301.603 242.376 299.766 243.214C297.929 244.052 296.466 245.523 295.655 247.35C294.954 249.081 294.932 251.164 295.977 252.72C297.021 254.277 299.254 255.073 300.936 254.208L299.961 251.771C302.976 252.779 304.936 258.149 304.529 261.261C304.127 264.368 302.285 267.09 300.416 269.628C298.547 272.165 296.555 274.729 295.752 277.762C294.595 282.125 296.159 286.894 299.051 290.391C301.942 293.889 306.018 296.263 310.238 298.009C313.397 299.317 316.68 300.314 320.038 300.984C319.438 299.834 318.844 298.684 318.244 297.534L325.361 301.775C326.738 301.907 328.125 301.986 329.512 302.013C333.55 302.081 337.668 301.665 341.363 300.077C345.064 298.484 348.314 295.598 349.653 291.847C350.083 290.634 350.286 289.354 350.253 288.07C346.981 287.374 343.709 286.679 340.437 285.986Z" fill="#2F2E41"/>
</g>
<defs>
<filter id="filter0_d_265_3926" x="99" y="106" width="324" height="429" filterUnits="userSpaceOnUse" color-interpolation-filters="sRGB">
<feFlood flood-opacity="0" result="BackgroundImageFix"/>
<feColorMatrix in="SourceAlpha" type="matrix" values="0 0 0 0 0 0 0 0 0 0 0 0 0 0 0 0 0 0 127 0" result="hardAlpha"/>
<feOffset dy="4"/>
<feGaussianBlur stdDeviation="15"/>
<feComposite in2="hardAlpha" operator="out"/>
<feColorMatrix type="matrix" values="0 0 0 0 0 0 0 0 0 0 0 0 0 0 0 0 0 0 0.25 0"/>
<feBlend mode="normal" in2="BackgroundImageFix" result="effect1_dropShadow_265_3926"/>
<feBlend mode="normal" in="SourceGraphic" in2="effect1_dropShadow_265_3926" result="shape"/>
</filter>
<linearGradient id="paint0_linear_265_3926" x1="258.5" y1="0" x2="258.5" y2="649" gradientUnits="userSpaceOnUse">
<stop stop-color="#AF659C"/>
<stop offset="1" stop-color="#53A4C8"/>
</linearGradient>
<clipPath id="clip0_265_3926">
<rect width="253.929" height="355" fill="white" transform="translate(153 147)"/>
</clipPath>
</defs>
</svg>
