<svg width="25" height="25" viewBox="0 0 25 25" fill="none" xmlns="http://www.w3.org/2000/svg">
<path d="M4.11437 0C4.60723 0 5.03153 0.393344 5.12582 0.937013L5.1901 1.53688H23.2205C24.0905 1.53688 24.7848 2.50943 24.5405 3.48967L22.2262 12.7128C22.059 13.3756 21.519 13.8319 20.9061 13.8319H7.31586L7.71015 16.1372H20.9147C21.4847 16.1372 21.9433 16.6511 21.9433 17.2898C21.9433 17.9286 21.4847 18.4425 20.9147 18.4425H6.81871C6.36441 18.4425 5.94012 18.0487 5.84583 17.506L3.26321 2.30531H1.02859C0.460723 2.30531 0 1.78902 0 1.15266C0 0.516294 0.460723 0 1.02859 0H4.11437ZM5.48582 22.2847C5.48582 21.012 6.40727 19.9794 7.54301 19.9794C8.67874 19.9794 9.60019 21.012 9.60019 22.2847C9.60019 23.5574 8.67874 24.59 7.54301 24.59C6.40727 24.59 5.48582 23.5574 5.48582 22.2847ZM21.9433 22.2847C21.9433 23.5574 21.0218 24.59 19.8861 24.59C18.7504 24.59 17.8289 23.5574 17.8289 22.2847C17.8289 21.012 18.7504 19.9794 19.8861 19.9794C21.0218 19.9794 21.9433 21.012 21.9433 22.2847Z" fill="#0E0E0E"/>
</svg>
