<svg width="254" height="355" viewBox="0 0 254 355" fill="none" xmlns="http://www.w3.org/2000/svg">
<g clip-path="url(#clip0_265_3929)">
<path d="M213.313 19.2825H0.53194C0.389796 19.2794 0.254523 19.2216 0.155097 19.1215C0.0556724 19.0214 0 18.8869 0 18.7468C0 18.6068 0.0556724 18.4723 0.155097 18.3722C0.254523 18.2721 0.389796 18.2143 0.53194 18.2112H213.313C213.455 18.2143 213.59 18.2721 213.69 18.3722C213.789 18.4723 213.845 18.6068 213.845 18.7468C213.845 18.8869 213.789 19.0214 213.69 19.1215C213.59 19.2216 213.455 19.2794 213.313 19.2825Z" fill="#CACACA"/>
<path d="M12.5039 11.7837C15.7352 11.7837 18.3548 9.14585 18.3548 5.89186C18.3548 2.63788 15.7352 0 12.5039 0C9.2725 0 6.65295 2.63788 6.65295 5.89186C6.65295 9.14585 9.2725 11.7837 12.5039 11.7837Z" fill="#3F3D56"/>
<path d="M32.716 11.7837C35.9474 11.7837 38.5669 9.14585 38.5669 5.89186C38.5669 2.63788 35.9474 0 32.716 0C29.4847 0 26.8651 2.63788 26.8651 5.89186C26.8651 9.14585 29.4847 11.7837 32.716 11.7837Z" fill="#3F3D56"/>
<path d="M52.9283 11.7837C56.1597 11.7837 58.7792 9.14585 58.7792 5.89186C58.7792 2.63788 56.1597 0 52.9283 0C49.6969 0 47.0774 2.63788 47.0774 5.89186C47.0774 9.14585 49.6969 11.7837 52.9283 11.7837Z" fill="#3F3D56"/>
<path d="M201.203 3.60387H186.841C186.557 3.59768 186.286 3.4821 186.088 3.28188C185.889 3.08165 185.777 2.8127 185.777 2.53262C185.777 2.25253 185.889 1.98358 186.088 1.78335C186.286 1.58313 186.557 1.46755 186.841 1.46137H201.203C201.487 1.46755 201.757 1.58313 201.956 1.78335C202.155 1.98358 202.266 2.25253 202.266 2.53262C202.266 2.8127 202.155 3.08165 201.956 3.28188C201.757 3.4821 201.487 3.59768 201.203 3.60387Z" fill="#3F3D56"/>
<path d="M201.203 7.62105H186.841C186.557 7.61486 186.286 7.49928 186.088 7.29906C185.889 7.09884 185.777 6.82988 185.777 6.5498C185.777 6.26971 185.889 6.00076 186.088 5.80054C186.286 5.60031 186.557 5.48473 186.841 5.47855H201.203C201.487 5.48473 201.757 5.60031 201.956 5.80054C202.155 6.00076 202.266 6.26971 202.266 6.5498C202.266 6.82988 202.155 7.09884 201.956 7.29906C201.757 7.49928 201.487 7.61486 201.203 7.62105Z" fill="#3F3D56"/>
<path d="M201.203 11.6382H186.841C186.557 11.632 186.286 11.5165 186.088 11.3162C185.889 11.116 185.777 10.8471 185.777 10.567C185.777 10.2869 185.889 10.0179 186.088 9.81772C186.286 9.61749 186.557 9.50191 186.841 9.49572H201.203C201.487 9.50191 201.757 9.61749 201.956 9.81772C202.155 10.0179 202.266 10.2869 202.266 10.567C202.266 10.8471 202.155 11.116 201.956 11.3162C201.757 11.5165 201.487 11.632 201.203 11.6382Z" fill="#3F3D56"/>
<path d="M182.74 169.848H31.1047C26.4188 169.843 21.9264 168.007 18.613 164.743C15.2996 161.479 13.4359 157.053 13.4307 152.438V71.0847C13.4359 66.469 15.2997 62.0438 18.6131 58.7801C21.9265 55.5163 26.4189 53.6805 31.1047 53.6755H182.74C187.426 53.6805 191.918 55.5163 195.231 58.7801C198.545 62.0438 200.409 66.469 200.414 71.0847V152.438C200.409 157.053 198.545 161.479 195.232 164.743C191.918 168.007 187.426 169.843 182.74 169.848Z" fill="#F2F2F2"/>
<path d="M106.922 140.059C122.788 140.059 135.649 127.39 135.649 111.762C135.649 96.1334 122.788 83.4642 106.922 83.4642C91.0567 83.4642 78.1952 96.1334 78.1952 111.762C78.1952 127.39 91.0567 140.059 106.922 140.059Z" fill="#B66397"/>
<path d="M101.397 125C100.99 124.999 100.59 124.896 100.235 124.702C99.8542 124.5 99.5368 124.199 99.3166 123.833C99.0965 123.466 98.9819 123.047 98.9853 122.621V103.011C98.9853 102.586 99.1012 102.169 99.321 101.803C99.5408 101.437 99.8563 101.135 100.235 100.931C100.613 100.726 101.04 100.625 101.472 100.639C101.903 100.652 102.323 100.779 102.687 101.007L121.572 110.813C121.914 111.027 122.196 111.323 122.392 111.673C122.587 112.023 122.69 112.417 122.69 112.816C122.69 113.216 122.587 113.609 122.392 113.959C122.196 114.31 121.914 114.606 121.572 114.82L102.687 124.625C102.302 124.869 101.855 124.999 101.397 125Z" fill="white"/>
<path d="M198.557 218.241C198.003 217.869 197.539 217.381 197.196 216.813C196.854 216.245 196.643 215.61 196.576 214.952C196.51 214.295 196.591 213.631 196.814 213.008C197.036 212.385 197.395 211.817 197.864 211.345L190.6 196.969L199.01 197.977L204.618 211.475C205.371 212.304 205.789 213.376 205.793 214.489C205.796 215.601 205.386 216.676 204.639 217.51C203.891 218.344 202.86 218.879 201.739 219.013C200.618 219.148 199.486 218.873 198.557 218.241H198.557Z" fill="#FFB8B8"/>
<path d="M169.11 168.775L174.62 168.025C174.62 168.025 175.152 176.209 177.788 177.449C180.424 178.689 179.535 178.893 179.846 180.206C180.146 181.131 180.639 181.982 181.295 182.706C181.95 183.43 182.753 184.01 183.652 184.408C185.74 185.313 195.237 208.062 195.237 208.062L203.234 206.225C202.494 204.25 202.007 202.192 201.784 200.098C201.503 196.932 197.861 189.463 196.661 188.354C195.462 187.245 195.936 185.291 195.314 182.665C194.693 180.039 195.124 182.474 194.088 178.097C193.052 173.721 181.404 147.493 180.916 143.452C180.428 139.411 174.712 137.033 174.712 137.033L170.269 138.053L169.11 168.775Z" fill="#3F3D56"/>
<path d="M147.497 182.317L138.586 223.523L187.225 219.911L172.667 179.68L147.497 182.317Z" fill="#FFB8B8"/>
<path d="M252.197 315.562C250.749 320.718 248.488 325.619 245.497 330.085C238.814 340.039 229.249 347.652 218.737 353.744C218.008 354.172 217.269 354.589 216.53 355H209.156L208.899 354.42V354.414L208.599 353.744L208.562 353.665L208.545 353.744L208.251 355H204.631C204.331 354.583 204.036 354.167 203.747 353.744C203.324 353.127 202.917 352.505 202.531 351.872C201.851 350.765 201.243 349.616 200.711 348.432C200.646 348.3 200.593 348.169 200.539 348.037L200.78 347.778L199.779 343.463L201.792 343.136L199.586 336.431C199.666 336.183 199.757 335.935 199.854 335.687C201.091 332.601 203.415 330.296 206.173 328.36C209.011 326.36 212.316 324.757 215.352 323.09C216.777 322.304 218.18 321.476 219.545 320.6V320.595C221.291 319.481 222.985 318.291 224.628 317.023C224.656 317.006 224.683 316.986 224.708 316.965C224.731 316.949 224.752 316.932 224.772 316.912C232.135 311.246 238.365 304.283 243.147 296.376C243.147 296.376 243.148 296.376 243.149 296.375C243.149 296.375 243.15 296.375 243.15 296.374C243.151 296.374 243.151 296.373 243.151 296.373C243.152 296.372 243.152 296.371 243.152 296.37C243.312 296.117 243.462 295.864 243.612 295.606V295.6C245.57 292.283 247.256 288.817 248.652 285.234V285.229C248.759 284.965 248.855 284.702 248.957 284.438C249.096 284.67 249.23 284.902 249.359 285.134C249.359 285.134 249.36 285.134 249.361 285.135C249.361 285.135 249.362 285.135 249.362 285.136C249.363 285.136 249.363 285.137 249.364 285.137C249.364 285.138 249.364 285.139 249.364 285.139C254.559 294.292 255.051 305.317 252.197 315.562Z" fill="#F0F0F0"/>
<path d="M249.364 285.139C249.416 290.024 248.9 294.898 247.827 299.668C247.345 301.85 246.744 304.005 246.028 306.125C244.637 310.27 242.819 314.265 240.603 318.047C240.48 318.252 240.362 318.453 240.233 318.653V318.659C239.286 320.232 238.258 321.757 237.154 323.227C235.483 325.569 233.418 327.614 231.049 329.272C229.113 330.532 226.925 331.365 224.633 331.715C224.205 331.794 223.765 331.852 223.321 331.905C221.548 332.111 219.717 332.19 217.96 332.559C217.071 332.732 216.204 333.006 215.379 333.377C212.551 334.669 210.961 337.375 210.265 340.266C210.141 340.773 210.045 341.284 209.97 341.796C209.386 345.726 210.029 349.809 209.697 353.744C209.659 354.161 209.611 354.583 209.552 355H209.156L208.899 354.42V354.414C208.926 354.193 208.947 353.971 208.969 353.744C209.097 351.811 209.113 349.872 209.017 347.936C208.995 347.066 208.979 346.19 208.99 345.315C209.001 344.613 209.027 343.911 209.081 343.215V343.21C209.119 342.777 209.161 342.35 209.22 341.923C209.39 340.614 209.718 339.33 210.195 338.098C210.661 336.828 211.394 335.67 212.347 334.699C213.299 333.728 214.449 332.966 215.722 332.464C216.499 332.177 217.3 331.956 218.116 331.805C219.91 331.467 221.763 331.383 223.567 331.161C223.76 331.14 223.953 331.114 224.14 331.082C224.381 331.045 224.617 331.003 224.853 330.961C227.214 330.548 229.444 329.596 231.365 328.18C233.647 326.401 235.631 324.279 237.245 321.892C238.123 320.653 238.959 319.387 239.735 318.084C239.735 318.083 239.735 318.082 239.735 318.082C239.736 318.081 239.736 318.08 239.737 318.08C239.737 318.079 239.738 318.079 239.738 318.079C239.739 318.078 239.74 318.078 239.74 318.078C239.778 318.015 239.815 317.957 239.853 317.894L239.858 317.883C243.189 312.276 245.621 306.196 247.067 299.857C247.115 299.625 247.168 299.393 247.222 299.161C248.216 294.585 248.695 289.914 248.652 285.234V285.229C248.652 285.008 248.646 284.791 248.641 284.57C248.63 284.116 249.343 284.016 249.353 284.469C249.359 284.691 249.364 284.913 249.359 285.134C249.359 285.134 249.36 285.134 249.361 285.135C249.361 285.135 249.362 285.135 249.362 285.136C249.363 285.136 249.363 285.137 249.364 285.137C249.364 285.138 249.364 285.139 249.364 285.139Z" fill="white"/>
<path d="M239.927 318.51C241.968 319.531 244.311 319.805 246.537 319.281C248.763 318.758 250.728 317.472 252.081 315.653C252.353 315.284 251.784 314.85 251.511 315.219C250.255 316.915 248.424 318.113 246.35 318.596C244.276 319.079 242.095 318.816 240.201 317.854C239.789 317.646 239.518 318.303 239.927 318.51H239.927Z" fill="white"/>
<path d="M224.921 331.171C223.43 326.802 223.665 322.041 225.58 317.835C225.77 317.419 225.104 317.15 224.914 317.566C222.93 321.946 222.695 326.902 224.257 331.444C224.406 331.877 225.07 331.601 224.921 331.171L224.921 331.171Z" fill="white"/>
<path d="M247.429 299.226C246.556 298.993 245.755 298.55 245.098 297.937C244.442 297.324 243.951 296.559 243.668 295.713C243.525 295.278 242.861 295.555 243.004 295.987C243.321 296.92 243.864 297.764 244.588 298.443C245.312 299.122 246.193 299.616 247.156 299.882C247.244 299.914 247.342 299.913 247.429 299.877C247.516 299.841 247.586 299.773 247.625 299.688C247.661 299.601 247.66 299.504 247.623 299.417C247.587 299.331 247.517 299.262 247.429 299.226Z" fill="white"/>
<path d="M219.545 320.595V320.6C219.379 324.367 218.901 328.114 218.115 331.805V331.81C218.073 332.063 218.014 332.311 217.96 332.559C216.668 338.266 214.856 343.847 212.546 349.234C211.909 350.753 211.241 352.257 210.543 353.744C210.35 354.167 210.152 354.583 209.949 355H209.156L208.899 354.42V354.414L208.599 353.744L208.561 353.665L208.545 353.744L208.251 355H200.593L199.104 353.744L196.935 351.914L199.966 348.654L200.464 348.116L200.539 348.037L200.78 347.778L199.779 343.463L201.792 343.136L199.586 336.431L198.542 333.261L198.279 332.464L196.753 327.827L192.147 328.676L191.398 326.091C192.778 322.939 193.927 319.694 194.836 316.38C194.841 316.353 194.852 316.332 194.857 316.306C197.29 307.379 198.02 298.085 197.01 288.895V288.89C196.978 288.595 196.94 288.294 196.897 288.004V287.993C196.438 284.185 195.665 280.42 194.584 276.736C194.509 276.456 194.423 276.182 194.343 275.908C194.589 276.013 194.83 276.113 195.077 276.219L195.082 276.224H195.093C195.484 276.393 195.875 276.572 196.255 276.762C205.391 281.135 212.112 289.344 215.93 298.808C215.941 298.834 215.952 298.855 215.963 298.882C217.955 303.843 219.142 309.082 219.481 314.407C219.609 316.467 219.631 318.532 219.545 320.595Z" fill="#F0F0F0"/>
<path d="M205.648 355H204.802C204.534 354.573 204.245 354.156 203.956 353.744C203.495 353.106 203.021 352.482 202.531 351.872C202.108 351.344 201.685 350.822 201.262 350.3C200.823 349.756 200.389 349.213 199.966 348.654L200.464 348.116C200.545 348.221 200.625 348.327 200.711 348.432C202.082 350.21 203.565 351.919 204.834 353.744C205.118 354.156 205.391 354.573 205.648 355Z" fill="white"/>
<path d="M194.165 276.202C194.305 276.377 194.449 276.556 194.583 276.735C195.627 278.07 196.614 279.447 197.545 280.866C199.201 283.37 200.672 285.988 201.947 288.7C202.048 288.911 202.15 289.127 202.247 289.343C204.974 295.269 206.752 301.576 207.516 308.039C207.527 308.102 207.532 308.16 207.538 308.223C207.714 309.732 207.829 311.246 207.88 312.765C208.051 315.626 207.764 318.496 207.029 321.269C206.922 321.633 206.804 321.992 206.675 322.34C206.353 323.193 205.95 324.015 205.47 324.793C205.126 325.361 204.743 325.906 204.324 326.423C204.073 326.74 203.81 327.051 203.532 327.352C203.371 327.526 203.205 327.7 203.039 327.874C202.9 328.006 202.766 328.143 202.627 328.275C201.181 329.657 199.585 330.939 198.278 332.463L198.541 333.26C199.799 331.688 201.422 330.385 202.884 329.013C203.802 328.163 204.637 327.231 205.379 326.228C205.476 326.091 205.578 325.954 205.669 325.811C206.165 325.097 206.593 324.34 206.948 323.548C207.131 323.152 207.297 322.746 207.447 322.324C208.321 319.597 208.72 316.743 208.625 313.884C208.608 312.052 208.497 310.223 208.293 308.403C208.271 308.165 208.244 307.933 208.212 307.696C207.669 303.363 206.679 299.096 205.256 294.961C203.456 289.716 200.979 284.72 197.887 280.096C197.004 278.772 196.066 277.479 195.076 276.218C194.947 276.044 194.813 275.875 194.674 275.701C194.39 275.343 193.881 275.844 194.165 276.202Z" fill="white"/>
<path d="M207.957 308.469C210.211 308.074 212.248 306.903 213.706 305.165C215.164 303.427 215.947 301.235 215.915 298.98C215.913 298.889 215.875 298.801 215.808 298.736C215.742 298.672 215.653 298.635 215.559 298.634C215.466 298.633 215.376 298.667 215.308 298.73C215.24 298.793 215.2 298.88 215.195 298.972C215.229 301.071 214.499 303.113 213.138 304.729C211.777 306.345 209.875 307.428 207.775 307.784C207.318 307.861 207.504 308.547 207.957 308.469Z" fill="white"/>
<path d="M203.714 327.478C199.853 324.874 197.131 320.933 196.089 316.44C195.986 315.994 195.29 316.175 195.393 316.62C196.486 321.293 199.328 325.389 203.351 328.09C203.735 328.347 204.096 327.733 203.714 327.478Z" fill="white"/>
<path d="M202.16 288.623C201.321 288.955 200.411 289.076 199.512 288.976C198.613 288.876 197.753 288.557 197.01 288.049C196.63 287.787 196.27 288.401 196.647 288.661C197.471 289.219 198.42 289.57 199.413 289.682C200.406 289.795 201.412 289.667 202.343 289.309C202.434 289.282 202.511 289.223 202.558 289.142C202.606 289.062 202.621 288.967 202.6 288.876C202.575 288.785 202.515 288.708 202.433 288.66C202.35 288.613 202.252 288.6 202.16 288.623Z" fill="white"/>
<path d="M154.275 344.153H148.812L146.213 323.394L154.277 323.394L154.275 344.153Z" fill="#FFB8B8"/>
<path d="M157.215 354.372H153.338L152.646 350.767L150.874 354.372H140.591C140.098 354.372 139.618 354.217 139.221 353.929C138.824 353.642 138.531 353.236 138.384 352.773C138.238 352.309 138.245 351.812 138.406 351.353C138.567 350.894 138.872 350.498 139.278 350.222L147.489 344.635V340.99L156.126 341.498L157.215 354.372Z" fill="#2F2E41"/>
<path d="M205.914 341.476L200.575 342.616L193.567 322.872L201.448 321.188L205.914 341.476Z" fill="#FFB8B8"/>
<path d="M210.987 350.849L207.198 351.658L205.745 348.279L204.789 352.173L194.741 354.32C194.259 354.423 193.756 354.372 193.306 354.173C192.857 353.975 192.483 353.64 192.24 353.218C191.997 352.796 191.897 352.308 191.955 351.826C192.013 351.344 192.227 350.893 192.564 350.538L199.386 343.364L198.602 339.802L207.151 338.495L210.987 350.849Z" fill="#2F2E41"/>
<path d="M244.394 354.372C244.395 354.455 244.378 354.536 244.346 354.613C244.314 354.689 244.267 354.758 244.208 354.817C244.149 354.875 244.079 354.921 244.001 354.953C243.924 354.984 243.841 355 243.757 355H93.6517C93.4827 355 93.3206 354.934 93.2011 354.816C93.0816 354.698 93.0144 354.539 93.0144 354.372C93.0144 354.206 93.0816 354.046 93.2011 353.928C93.3206 353.811 93.4827 353.744 93.6517 353.744H243.757C243.841 353.744 243.924 353.76 244.001 353.792C244.079 353.823 244.149 353.869 244.208 353.928C244.267 353.986 244.314 354.055 244.346 354.132C244.378 354.208 244.395 354.29 244.394 354.372Z" fill="#CCCCCC"/>
<path d="M137.344 251.424C141.179 272.182 139.995 258.988 139.995 258.988C139.995 258.988 137.119 262.291 139.037 264.179C140.954 266.068 139.037 269.84 139.037 269.84L145.89 324.75L146.961 329.498H154.458L154.994 323.168L158.418 292.471C158.418 292.471 160.335 288.693 159.376 287.749C158.418 286.805 160.335 281.144 160.335 281.144L162.729 236.326L171.688 263.762C171.688 263.762 170.248 265.651 171.688 267.065C173.123 268.479 181.885 297.187 181.885 297.187L192.481 322.113L193.017 322.64L195.695 329.498L202.657 326.333L198.524 291.189L198.353 290.434L198.17 289.638C198.17 289.638 199.129 287.28 197.694 285.861C197.274 285.428 196.967 284.901 196.8 284.326C196.633 283.751 196.611 283.144 196.735 282.558C196.782 282.509 196.825 282.456 196.864 282.4C197.033 282.171 197.15 281.908 197.207 281.63C197.335 281.039 197.223 280.211 196.253 279.256C195.98 278.97 195.751 278.647 195.573 278.296C194.117 275.579 193.383 269.824 193.383 269.824C193.383 269.824 192.087 224.24 187.845 217.277C187.62 216.913 177.722 191.956 177.487 191.813C172.699 188.986 144.819 192.868 144.819 192.868C144.819 192.868 136.327 216.839 136.225 217.461C135.673 220.959 134.094 233.815 137.344 251.424Z" fill="#2F2E41"/>
<path d="M115.529 117.256C115.165 117.811 114.929 118.438 114.837 119.093C114.746 119.747 114.801 120.413 114.999 121.044C115.198 121.676 115.534 122.256 115.985 122.745C116.435 123.235 116.99 123.621 117.608 123.876L116.581 139.903L123.933 135.757L123.781 121.173C124.148 120.121 124.11 118.973 123.675 117.947C123.24 116.92 122.438 116.087 121.421 115.604C120.404 115.121 119.242 115.023 118.156 115.327C117.07 115.632 116.135 116.318 115.529 117.256H115.529Z" fill="#FFB8B8"/>
<path d="M143.931 143.282C143.931 143.282 147.871 137.498 155.627 129.858C159.733 128.51 166.847 129.296 169.313 129.858C180.718 144.688 181.436 143.703 184.405 151.988C185.175 154.137 185.56 156.201 185.217 157.887C183.849 164.627 174.261 181.278 174.717 183.075C175.173 184.873 178.367 187.12 175.173 187.12C171.98 187.12 145.513 184.193 146.425 182.845C147.338 181.497 143.931 143.282 143.931 143.282Z" fill="#3F3D56"/>
<path d="M157.863 124.106C165.159 124.106 171.073 118.28 171.073 111.094C171.073 103.907 165.159 98.081 157.863 98.081C150.567 98.081 144.653 103.907 144.653 111.094C144.653 118.28 150.567 124.106 157.863 124.106Z" fill="#FFB8B8"/>
<path d="M160.155 138.873C160.155 138.873 149.206 129.303 135.372 148.689L124.795 153.7L124.468 141.698L126.337 139.296L125.54 126.4L115.22 128.107L114.455 136.482L112.687 140.115L113.841 143.197L112.625 156.506L113.222 161.216C113.222 161.216 113.947 167.234 118.219 169.739C119.356 170.41 120.594 170.901 121.886 171.194C124.417 171.764 127.475 171.633 131.104 170.205C138.644 167.293 146 163.939 153.134 160.161L160.155 138.873Z" fill="#3F3D56"/>
<path d="M187.437 138.986C190.232 138.01 193.028 137.033 195.823 136.053C195.341 135.257 194.728 134.546 194.008 133.949C191.346 131.759 187.672 131.364 184.293 130.625C180.909 129.887 177.235 128.373 175.998 125.186C174.712 121.873 176.576 118.297 177.658 114.921C179.173 110.21 179.141 104.95 177.112 100.435C175.082 95.919 170.958 92.258 166.064 91.1818C161.169 90.1109 155.637 91.857 152.627 95.803C150.688 95.23 148.603 95.3761 146.766 96.2139C144.929 97.0517 143.466 98.5231 142.655 100.35C141.954 102.081 141.932 104.164 142.977 105.72C144.021 107.277 146.254 108.073 147.936 107.208L146.961 104.771C149.976 105.779 151.936 111.149 151.529 114.261C151.127 117.368 149.285 120.09 147.416 122.628C145.547 125.165 143.555 127.729 142.752 130.762C141.595 135.125 143.159 139.894 146.051 143.391C148.942 146.889 153.018 149.263 157.238 151.009C160.397 152.317 163.68 153.314 167.038 153.984C166.438 152.834 165.844 151.684 165.244 150.534L172.361 154.775C173.738 154.907 175.125 154.986 176.512 155.013C180.55 155.081 184.668 154.665 188.363 153.077C192.064 151.484 195.314 148.598 196.653 144.847C197.083 143.634 197.286 142.354 197.253 141.07C193.981 140.374 190.709 139.679 187.437 138.986Z" fill="#2F2E41"/>
</g>
<defs>
<clipPath id="clip0_265_3929">
<rect width="253.929" height="355" fill="white"/>
</clipPath>
</defs>
</svg>
