<svg width="21" height="19" viewBox="0 0 21 19" fill="none" xmlns="http://www.w3.org/2000/svg">
<mask id="path-1-inside-1_445_1199" fill="white">
<path d="M0 6.82998V6.59209C0 3.7251 2.07211 1.27975 4.89727 0.808889C6.73066 0.49758 8.6707 1.10707 10.0078 2.44623L10.5 2.9376L10.9553 2.44623C12.3293 1.10707 14.2324 0.49758 16.1027 0.808889C18.9287 1.27975 21 3.7251 21 6.59209V6.82998C21 8.53213 20.2945 10.1605 19.0477 11.3212L11.6361 18.2405C11.3285 18.5276 10.9225 18.6876 10.5 18.6876C10.0775 18.6876 9.67148 18.5276 9.36387 18.2405L1.95193 11.3212C0.706699 10.1605 1.23047e-05 8.53213 1.23047e-05 6.82998H0Z"/>
</mask>
<path d="M0 6.82998V6.59209C0 3.7251 2.07211 1.27975 4.89727 0.808889C6.73066 0.49758 8.6707 1.10707 10.0078 2.44623L10.5 2.9376L10.9553 2.44623C12.3293 1.10707 14.2324 0.49758 16.1027 0.808889C18.9287 1.27975 21 3.7251 21 6.59209V6.82998C21 8.53213 20.2945 10.1605 19.0477 11.3212L11.6361 18.2405C11.3285 18.5276 10.9225 18.6876 10.5 18.6876C10.0775 18.6876 9.67148 18.5276 9.36387 18.2405L1.95193 11.3212C0.706699 10.1605 1.23047e-05 8.53213 1.23047e-05 6.82998H0Z" stroke="black" stroke-width="2" mask="url(#path-1-inside-1_445_1199)"/>
</svg>
