<svg width="21" height="19" viewBox="0 0 21 19" fill="none" xmlns="http://www.w3.org/2000/svg">
<path d="M0 6.82987V6.59198C0 3.72499 2.07211 1.27964 4.89727 0.808782C6.73066 0.497473 8.6707 1.10697 10.0078 2.44613L10.5 2.93749L10.9553 2.44613C12.3293 1.10697 14.2324 0.497473 16.1027 0.808782C18.9287 1.27964 21 3.72499 21 6.59198V6.82987C21 8.53202 20.2945 10.1603 19.0477 11.3211L11.6361 18.2404C11.3285 18.5275 10.9225 18.6875 10.5 18.6875C10.0775 18.6875 9.67148 18.5275 9.36387 18.2404L1.95193 11.3211C0.706699 10.1603 1.23047e-05 8.53202 1.23047e-05 6.82987H0Z" fill="#FB3958" fill-opacity="0.81"/>
</svg>
