<svg width="37" height="24" viewBox="0 0 37 24" fill="none" xmlns="http://www.w3.org/2000/svg">
<path d="M35.3077 4.27049C34.9042 2.88475 33.7155 1.79338 32.2061 1.42301C29.4703 0.75 18.5 0.75 18.5 0.75C18.5 0.75 7.52975 0.75 4.79387 1.42301C3.28451 1.79344 2.09576 2.88475 1.69229 4.27049C0.959229 6.78223 0.959229 12.0227 0.959229 12.0227C0.959229 12.0227 0.959229 17.2632 1.69229 19.775C2.09576 21.1607 3.28451 22.2066 4.79387 22.577C7.52975 23.25 18.5 23.25 18.5 23.25C18.5 23.25 29.4702 23.25 32.2061 22.577C33.7155 22.2066 34.9042 21.1607 35.3077 19.775C36.0408 17.2632 36.0408 12.0227 36.0408 12.0227C36.0408 12.0227 36.0408 6.78223 35.3077 4.27049ZM14.9121 16.7807V7.26475L24.0811 12.0229L14.9121 16.7807Z" fill="white"/>
</svg>
